<svg xmlns="http://www.w3.org/2000/svg" xmlns:xlink="http://www.w3.org/1999/xlink" width="1398" zoomAndPan="magnify" viewBox="0 0 1048.5 314.250004" height="419" preserveAspectRatio="xMidYMid meet" version="1.0"><defs><g/><clipPath id="040c7575fc"><path d="M 1.710938 0.453125 L 253.859375 0.453125 L 253.859375 300.488281 L 1.710938 300.488281 Z M 1.710938 0.453125 " clip-rule="nonzero"/></clipPath><clipPath id="43ce38a276"><path d="M 1.710938 0.453125 L 253.859375 0.453125 L 253.859375 206 L 1.710938 206 Z M 1.710938 0.453125 " clip-rule="nonzero"/></clipPath><clipPath id="4918a48d80"><path d="M 88 220 L 150 220 L 150 300.488281 L 88 300.488281 Z M 88 220 " clip-rule="nonzero"/></clipPath><clipPath id="fb5338e674"><path d="M 81 126 L 124 126 L 124 300.488281 L 81 300.488281 Z M 81 126 " clip-rule="nonzero"/></clipPath><clipPath id="1e913e2bc8"><path d="M 1.710938 0.453125 L 178 0.453125 L 178 250 L 1.710938 250 Z M 1.710938 0.453125 " clip-rule="nonzero"/></clipPath><clipPath id="378029136d"><path d="M 1.710938 0.453125 L 178 0.453125 L 178 220 L 1.710938 220 Z M 1.710938 0.453125 " clip-rule="nonzero"/></clipPath><clipPath id="5e8d3da8f6"><path d="M 52.03125 56.421875 L 66 56.421875 L 66 71 L 52.03125 71 Z M 52.03125 56.421875 " clip-rule="nonzero"/></clipPath><clipPath id="92a12413fa"><path d="M 72 56.421875 L 87 56.421875 L 87 71 L 72 71 Z M 72 56.421875 " clip-rule="nonzero"/></clipPath><clipPath id="2d97ab5722"><path d="M 93 56.421875 L 107.398438 56.421875 L 107.398438 71 L 93 71 Z M 93 56.421875 " clip-rule="nonzero"/></clipPath><clipPath id="bf06738589"><path d="M 52.03125 77 L 66 77 L 66 91 L 52.03125 91 Z M 52.03125 77 " clip-rule="nonzero"/></clipPath><clipPath id="da9b094c2e"><path d="M 93 77 L 107.398438 77 L 107.398438 91 L 93 91 Z M 93 77 " clip-rule="nonzero"/></clipPath><clipPath id="905fbcaa4d"><path d="M 52.03125 97 L 66 97 L 66 111.789062 L 52.03125 111.789062 Z M 52.03125 97 " clip-rule="nonzero"/></clipPath><clipPath id="6baa5d1e2c"><path d="M 72 97 L 87 97 L 87 111.789062 L 72 111.789062 Z M 72 97 " clip-rule="nonzero"/></clipPath><clipPath id="8adfacbda1"><path d="M 93 97 L 107.398438 97 L 107.398438 111.789062 L 93 111.789062 Z M 93 97 " clip-rule="nonzero"/></clipPath></defs><g clip-path="url(#040c7575fc)"><path stroke-linecap="butt" transform="matrix(1.36973, 0, 0, 1.36908, 1.803592, 0.452832)" fill="none" stroke-linejoin="miter" d="M 57.200124 29.09993 C 60.670811 25.299477 73.210345 12.248972 92.448848 6.391367 C 97.830267 4.750781 103.739276 3.66942 110.118839 3.521054 C 113.421268 3.441165 124.859992 3.40978 138.129596 8.819434 C 143.550941 11.030659 161.819819 18.791344 172.730953 38.769402 C 178.520185 49.380427 180.028807 59.360896 180.450879 65.369721 C 180.419509 81.179264 180.390991 97.00022 180.35962 112.809763 C 175.520051 112.86968 170.689036 112.929597 165.849466 113.000927 C 165.729689 128.31972 165.601356 143.641367 165.478727 158.948748 C 154.961147 159.000106 144.429307 159.04861 133.908875 159.099968 C 133.888912 177.899657 133.86895 196.699346 133.848987 215.510448 C 103.029168 215.558953 72.20935 215.598897 41.389531 215.650255 C 41.420902 175.480149 41.44942 135.310043 41.48079 95.139938 " stroke="#7ed957" stroke-width="7" stroke-opacity="1" stroke-miterlimit="10"/></g><g clip-path="url(#43ce38a276)"><path stroke-linecap="butt" transform="matrix(1.36973, 0, 0, 1.36908, 1.803592, 0.452832)" fill="none" stroke-linejoin="miter" d="M 104.010201 50.769932 L 92.850957 50.769932 C 92.890883 36.038896 92.939364 21.310713 92.97929 6.579677 " stroke="#7ed957" stroke-width="7" stroke-opacity="1" stroke-miterlimit="10"/></g><path stroke-linecap="butt" transform="matrix(1.36973, 0, 0, 1.36908, 1.803592, 0.452832)" fill="none" stroke-linejoin="miter" d="M 122.25056 39.228766 L 134.519169 39.228766 L 134.519169 82.771346 L 122.25056 82.771346 " stroke="#7ed957" stroke-width="7" stroke-opacity="1" stroke-miterlimit="10"/><path stroke-linecap="butt" transform="matrix(1.36973, 0, 0, 1.36908, 1.803592, 0.452832)" fill="none" stroke-linejoin="miter" d="M 122.25056 60.998629 L 151.270868 60.998629 " stroke="#7ed957" stroke-width="7" stroke-opacity="1" stroke-miterlimit="10"/><g clip-path="url(#4918a48d80)"><path stroke-linecap="butt" transform="matrix(1.36973, 0, 0, 1.36908, 1.803592, 0.452832)" fill="none" stroke-linejoin="miter" d="M 104.010201 215.558953 L 104.010201 164.261394 L 66.428673 164.261394 " stroke="#7ed957" stroke-width="7" stroke-opacity="1" stroke-miterlimit="10"/></g><g clip-path="url(#fb5338e674)"><path stroke-linecap="butt" transform="matrix(1.36973, 0, 0, 1.36908, 1.803592, 0.452832)" fill="none" stroke-linejoin="miter" d="M 61.409438 95.610715 L 61.409438 144.719874 L 85.219437 144.719874 L 85.219437 215.558953 " stroke="#7ed957" stroke-width="7" stroke-opacity="1" stroke-miterlimit="10"/></g><g clip-path="url(#1e913e2bc8)"><path stroke-linecap="butt" transform="matrix(1.36973, 0, 0, 1.36908, 1.803592, 0.452832)" fill="none" stroke-linejoin="miter" d="M 28.949812 82.759933 L 16.669796 82.708576 L 16.840906 39.180262 L 29.120922 39.228766 " stroke="#7ed957" stroke-width="7" stroke-opacity="1" stroke-miterlimit="10"/></g><g clip-path="url(#378029136d)"><path stroke-linecap="butt" transform="matrix(1.36973, 0, 0, 1.36908, 1.803592, 0.452832)" fill="none" stroke-linejoin="miter" d="M 29.041071 60.99007 L 0.00935516 60.878795 " stroke="#7ed957" stroke-width="7" stroke-opacity="1" stroke-miterlimit="10"/></g><g clip-path="url(#5e8d3da8f6)"><path fill="#004aad" d="M 52.03125 56.605469 L 65.828125 56.605469 L 65.828125 70.398438 L 52.03125 70.398438 Z M 52.03125 56.605469 " fill-opacity="1" fill-rule="nonzero"/></g><g clip-path="url(#92a12413fa)"><path fill="#004aad" d="M 72.671875 56.605469 L 86.464844 56.605469 L 86.464844 70.398438 L 72.671875 70.398438 Z M 72.671875 56.605469 " fill-opacity="1" fill-rule="nonzero"/></g><g clip-path="url(#2d97ab5722)"><path fill="#004aad" d="M 93.324219 56.605469 L 107.117188 56.605469 L 107.117188 70.398438 L 93.324219 70.398438 Z M 93.324219 56.605469 " fill-opacity="1" fill-rule="nonzero"/></g><g clip-path="url(#bf06738589)"><path fill="#004aad" d="M 52.03125 77.070312 L 65.828125 77.070312 L 65.828125 90.863281 L 52.03125 90.863281 Z M 52.03125 77.070312 " fill-opacity="1" fill-rule="nonzero"/></g><path fill="#004aad" d="M 72.671875 77.070312 L 86.464844 77.070312 L 86.464844 90.863281 L 72.671875 90.863281 Z M 72.671875 77.070312 " fill-opacity="1" fill-rule="nonzero"/><g clip-path="url(#da9b094c2e)"><path fill="#004aad" d="M 93.324219 77.070312 L 107.117188 77.070312 L 107.117188 90.863281 L 93.324219 90.863281 Z M 93.324219 77.070312 " fill-opacity="1" fill-rule="nonzero"/></g><g clip-path="url(#905fbcaa4d)"><path fill="#004aad" d="M 52.03125 97.535156 L 65.828125 97.535156 L 65.828125 111.328125 L 52.03125 111.328125 Z M 52.03125 97.535156 " fill-opacity="1" fill-rule="nonzero"/></g><g clip-path="url(#6baa5d1e2c)"><path fill="#004aad" d="M 72.671875 97.535156 L 86.464844 97.535156 L 86.464844 111.328125 L 72.671875 111.328125 Z M 72.671875 97.535156 " fill-opacity="1" fill-rule="nonzero"/></g><g clip-path="url(#8adfacbda1)"><path fill="#004aad" d="M 93.324219 97.535156 L 107.117188 97.535156 L 107.117188 111.328125 L 93.324219 111.328125 Z M 93.324219 97.535156 " fill-opacity="1" fill-rule="nonzero"/></g><g fill="#004aad" fill-opacity="1"><g transform="translate(253.606694, 210.0663)"><g><path d="M 65.234375 -69.070312 L 63.3125 -62.546875 C 57.300781 -67.789062 49.5 -70.988281 40.546875 -70.988281 C 19.824219 -70.988281 4.347656 -55.382812 4.347656 -34.535156 C 4.347656 -13.6875 19.824219 2.046875 40.546875 2.046875 C 49.371094 2.046875 57.046875 -1.023438 62.929688 -6.265625 L 64.59375 0 L 79.175781 0 L 79.175781 -69.070312 Z M 42.082031 -15.605469 C 31.210938 -15.605469 23.277344 -23.789062 23.277344 -34.535156 C 23.277344 -45.40625 31.210938 -53.464844 42.082031 -53.464844 C 52.953125 -53.464844 60.882812 -45.40625 60.882812 -34.535156 C 60.882812 -23.664062 52.953125 -15.605469 42.082031 -15.605469 Z M 42.082031 -15.605469 "/></g></g></g><g fill="#004aad" fill-opacity="1"><g transform="translate(341.856246, 210.0663)"><g><path d="M 40.417969 2.046875 C 59.988281 2.046875 72.90625 -10.488281 72.90625 -29.164062 L 72.90625 -69.070312 L 54.234375 -69.070312 L 54.234375 -31.210938 C 54.234375 -21.488281 49.117188 -15.605469 40.417969 -15.605469 C 31.847656 -15.605469 26.605469 -21.359375 26.605469 -31.210938 L 26.605469 -69.070312 L 7.929688 -69.070312 L 7.929688 -29.164062 C 7.929688 -10.488281 20.976562 2.046875 40.417969 2.046875 Z M 40.417969 2.046875 "/></g></g></g><g fill="#004aad" fill-opacity="1"><g transform="translate(422.815619, 210.0663)"><g><path d="M 33.382812 2.046875 C 50.90625 2.046875 62.417969 -7.164062 62.417969 -21.234375 C 62.417969 -38.117188 47.964844 -40.417969 36.710938 -42.464844 C 29.546875 -43.746094 23.664062 -44.894531 23.664062 -49.5 C 23.664062 -53.464844 27.117188 -56.023438 32.871094 -56.023438 C 39.394531 -56.023438 43.234375 -53.335938 43.359375 -47.835938 L 61.140625 -47.835938 C 61.011719 -61.652344 50.011719 -70.988281 33.382812 -70.988281 C 16.753906 -70.988281 5.628906 -61.90625 5.628906 -48.859375 C 5.628906 -32.617188 19.699219 -29.675781 30.699219 -27.757812 C 37.988281 -26.605469 44 -25.199219 44 -20.464844 C 44 -15.859375 39.265625 -13.429688 34.152344 -13.429688 C 27.5 -13.429688 22.765625 -16.5 22.640625 -22.640625 L 4.476562 -22.640625 C 4.476562 -7.929688 16.117188 2.046875 33.382812 2.046875 Z M 33.382812 2.046875 "/></g></g></g><g fill="#004aad" fill-opacity="1"><g transform="translate(489.962026, 210.0663)"><g><path d="M 42.722656 -16.628906 C 35.8125 -16.628906 31.976562 -20.464844 31.976562 -27.117188 L 31.976562 -53.976562 L 50.777344 -53.976562 L 50.777344 -69.070312 L 31.722656 -69.070312 L 31.722656 -86.976562 L 28.140625 -86.976562 L 0.894531 -58.070312 L 0.894531 -53.976562 L 13.300781 -53.976562 L 13.300781 -24.558594 C 13.300781 -9.335938 22.640625 0 37.859375 0 L 51.164062 0 L 51.164062 -16.628906 Z M 42.722656 -16.628906 "/></g></g></g><g fill="#004aad" fill-opacity="1"><g transform="translate(544.958126, 210.0663)"><g><path d="M 65.234375 -69.070312 L 63.3125 -62.546875 C 57.300781 -67.789062 49.5 -70.988281 40.546875 -70.988281 C 19.824219 -70.988281 4.347656 -55.382812 4.347656 -34.535156 C 4.347656 -13.6875 19.824219 2.046875 40.546875 2.046875 C 49.371094 2.046875 57.046875 -1.023438 62.929688 -6.265625 L 64.59375 0 L 79.175781 0 L 79.175781 -69.070312 Z M 42.082031 -15.605469 C 31.210938 -15.605469 23.277344 -23.789062 23.277344 -34.535156 C 23.277344 -45.40625 31.210938 -53.464844 42.082031 -53.464844 C 52.953125 -53.464844 60.882812 -45.40625 60.882812 -34.535156 C 60.882812 -23.664062 52.953125 -15.605469 42.082031 -15.605469 Z M 42.082031 -15.605469 "/></g></g></g><g fill="#004aad" fill-opacity="1"><g transform="translate(633.207679, 210.0663)"><g><path d="M 64.722656 -69.070312 L 61.652344 -62.164062 C 55.640625 -67.664062 47.710938 -70.988281 38.757812 -70.988281 C 19.441406 -70.988281 4.347656 -55.640625 4.347656 -36.324219 C 4.347656 -16.882812 19.441406 -1.664062 38.757812 -1.664062 C 46.175781 -1.664062 52.953125 -3.964844 58.453125 -7.800781 L 58.453125 -5.246094 C 58.453125 4.859375 50.652344 11 41.1875 11 C 34.277344 11 26.988281 7.800781 24.8125 1.535156 L 6.265625 1.535156 C 9.464844 17.265625 22.765625 26.859375 41.441406 26.859375 C 63.3125 26.859375 76.746094 13.6875 76.746094 -7.929688 L 76.746094 -68.941406 Z M 40.929688 -18.417969 C 30.699219 -18.417969 23.277344 -25.964844 23.277344 -36.199219 C 23.277344 -46.558594 30.699219 -54.105469 40.929688 -54.105469 C 51.164062 -54.105469 58.582031 -46.558594 58.582031 -36.199219 C 58.582031 -25.964844 51.164062 -18.417969 40.929688 -18.417969 Z M 40.929688 -18.417969 "/></g></g></g><g fill="#004aad" fill-opacity="1"><g transform="translate(719.027156, 210.0663)"><g><path d="M 44.257812 -69.453125 C 35.300781 -69.453125 29.164062 -66.640625 24.175781 -60.5 L 20.847656 -69.070312 L 8.953125 -69.070312 L 8.953125 0 L 27.628906 0 L 27.628906 -35.8125 C 27.628906 -47.070312 31.722656 -51.800781 42.210938 -51.800781 L 50.394531 -51.800781 L 50.394531 -69.453125 Z M 44.257812 -69.453125 "/></g></g></g><g fill="#004aad" fill-opacity="1"><g transform="translate(771.081615, 210.0663)"><g><path d="M 75.976562 -34.664062 C 75.976562 -54.617188 61.394531 -70.988281 40.164062 -70.988281 C 19.699219 -70.988281 4.347656 -55.257812 4.347656 -34.535156 C 4.347656 -13.8125 19.824219 2.046875 40.164062 2.046875 C 56.277344 2.046875 69.453125 -7.546875 74.441406 -22.640625 L 54.871094 -22.640625 C 52.058594 -17.652344 46.6875 -14.582031 40.164062 -14.582031 C 31.082031 -14.582031 24.941406 -19.824219 23.277344 -29.289062 L 75.59375 -29.289062 C 75.847656 -31.082031 75.976562 -32.871094 75.976562 -34.664062 Z M 40.164062 -55 C 48.605469 -55 54.617188 -50.394531 57.300781 -41.953125 L 23.789062 -41.953125 C 25.964844 -50.140625 31.847656 -55 40.164062 -55 Z M 40.164062 -55 "/></g></g></g><g fill="#004aad" fill-opacity="1"><g transform="translate(851.401485, 210.0663)"><g><path d="M 64.722656 -69.070312 L 61.652344 -62.164062 C 55.640625 -67.664062 47.710938 -70.988281 38.757812 -70.988281 C 19.441406 -70.988281 4.347656 -55.640625 4.347656 -36.324219 C 4.347656 -16.882812 19.441406 -1.664062 38.757812 -1.664062 C 46.175781 -1.664062 52.953125 -3.964844 58.453125 -7.800781 L 58.453125 -5.246094 C 58.453125 4.859375 50.652344 11 41.1875 11 C 34.277344 11 26.988281 7.800781 24.8125 1.535156 L 6.265625 1.535156 C 9.464844 17.265625 22.765625 26.859375 41.441406 26.859375 C 63.3125 26.859375 76.746094 13.6875 76.746094 -7.929688 L 76.746094 -68.941406 Z M 40.929688 -18.417969 C 30.699219 -18.417969 23.277344 -25.964844 23.277344 -36.199219 C 23.277344 -46.558594 30.699219 -54.105469 40.929688 -54.105469 C 51.164062 -54.105469 58.582031 -46.558594 58.582031 -36.199219 C 58.582031 -25.964844 51.164062 -18.417969 40.929688 -18.417969 Z M 40.929688 -18.417969 "/></g></g></g></svg>