<svg xmlns="http://www.w3.org/2000/svg" version="1.0" viewBox="0 0 1232 278"><defs><clipPath id="a"><path d="M10 40h1143v197H10Zm0 0"/></clipPath><clipPath id="b"><path d="M1147 106c3 10 6 21 6 33a99 99 0 0 1-6 32c-14 38-50 65-112 66H10V40h1024c63 0 100 28 113 66Zm0 0"/></clipPath></defs><g clip-path="url(#a)"><g clip-path="url(#b)"><path d="M1153 40v197H10V40Zm0 0" fill="#004aad"/></g></g><path d="m130 84-22 63-23-63H64l35 90h18l34-90Zm32 11h18V78h-18Zm0 79h18v-69h-18Zm61 2c17 0 29-9 29-24 0-16-15-19-26-21-7-1-13-2-13-7 0-4 3-6 9-6 7 0 11 2 11 8h17c0-14-11-23-27-23-17 0-28 9-28 22 0 16 14 19 25 21 7 1 13 3 13 7 0 5-4 7-10 7s-11-3-11-9h-18c0 15 11 25 29 25Zm42-81h19V78h-19Zm0 79h19v-69h-19Zm70 2c21 0 37-16 37-37s-16-36-37-36-38 15-38 36 16 37 38 37Zm0-18c-11 0-19-8-19-19s8-19 19-19c10 0 18 8 18 19s-8 19-18 19Zm90-55c-10 0-18 4-23 10l-4-8h-13v69h19v-36c0-12 6-18 15-18 8 0 12 4 12 15v39h19v-42c0-18-10-29-25-29Zm146 71-14-16c5-7 8-16 8-27h-15l-4 14-14-17c10-5 20-12 20-24 0-13-11-21-25-21-16 0-26 8-26 21 0 5 2 10 9 20-9 6-16 13-16 26 0 15 11 25 28 25 9 0 17-2 24-7l5 6Zm-44-77c5 0 8 3 8 7 0 5-5 9-12 12-3-5-5-9-5-12 0-4 3-7 9-7Zm-3 62c-8 0-13-4-13-10 0-5 3-9 8-13l17 20-12 3Zm198 15-14-90h-20l-24 55-24-55h-19l-15 90h20l9-59 27 59h4l27-59 9 59Zm13-79h19V78h-19Zm0 79h19v-69h-19Zm61 2c18 0 29-9 29-24 0-16-14-19-25-21-7-1-13-2-13-7 0-4 3-6 9-6s10 2 10 8h18c0-14-11-23-28-23-16 0-27 9-27 22 0 16 14 19 25 21 7 1 13 3 13 7 0 5-5 7-10 7-7 0-11-3-11-9h-19c0 15 12 25 29 25Zm67 0c18 0 29-9 29-24 0-16-14-19-25-21-7-1-13-2-13-7 0-4 3-6 9-6s10 2 10 8h18c0-14-11-23-28-23-16 0-27 9-27 22 0 16 14 19 25 21 7 1 13 3 13 7 0 5-5 7-10 7-6 0-11-3-11-9h-18c0 15 11 25 28 25Zm43-81h19V78h-19Zm0 79h19v-69h-19Zm69 2c22 0 38-16 38-37s-16-36-38-36-37 15-37 36 16 37 37 37Zm0-18c-10 0-18-8-18-19s8-19 18-19c11 0 19 8 19 19s-8 19-19 19Zm90-55c-9 0-17 4-23 10l-3-8h-13v69h19v-36c0-12 6-18 15-18 8 0 12 4 12 15v39h19v-42c0-18-10-29-26-29Zm0 0" fill="#dcffcd"/></svg>