<svg xmlns="http://www.w3.org/2000/svg" xmlns:xlink="http://www.w3.org/1999/xlink" width="1643" zoomAndPan="magnify" viewBox="0 0 1232.25 277.499997" height="370" preserveAspectRatio="xMidYMid meet" version="1.0"><defs><g/><clipPath id="49538fb035"><path d="M 10 39.945312 L 1152.710938 39.945312 L 1152.710938 237.03125 L 10 237.03125 Z M 10 39.945312 " clip-rule="nonzero"/></clipPath><clipPath id="1c63dc06f5"><path d="M 1147.019531 105.675781 C 1150.457031 115.746094 1152.710938 127.265625 1152.710938 138.542969 C 1152.710938 149.816406 1150.777344 160.664062 1147.339844 170.660156 C 1147.234375 170.875 1147.234375 171.085938 1147.128906 171.300781 C 1133.382812 208.84375 1097.089844 236.496094 1034.679688 237.027344 L 10.003906 237.027344 L 10.003906 39.945312 L 1033.921875 39.945312 C 1097.304688 40.480469 1133.597656 67.707031 1147.019531 105.675781 Z M 1147.019531 105.675781 " clip-rule="nonzero"/></clipPath></defs><g clip-path="url(#49538fb035)"><g clip-path="url(#1c63dc06f5)"><path fill="#004aad" d="M 1152.710938 39.945312 L 1152.710938 237.03125 L 10.25 237.03125 L 10.25 39.945312 Z M 1152.710938 39.945312 " fill-opacity="1" fill-rule="nonzero"/></g></g><g fill="#dcffcd" fill-opacity="1"><g transform="translate(63.118223, 173.678934)"><g><path d="M 66.949219 -89.433594 L 44.972656 -26.191406 L 22.359375 -89.433594 L 1.023438 -89.433594 L 35.902344 0 L 54.171875 0 L 88.03125 -89.433594 Z M 66.949219 -89.433594 "/></g></g></g><g fill="#dcffcd" fill-opacity="1"><g transform="translate(152.807111, 173.678934)"><g><path d="M 8.945312 -78.191406 L 27.46875 -78.191406 L 27.46875 -95.441406 L 8.945312 -95.441406 Z M 8.945312 0 L 27.597656 0 L 27.597656 -68.992188 L 8.945312 -68.992188 Z M 8.945312 0 "/></g></g></g><g fill="#dcffcd" fill-opacity="1"><g transform="translate(189.34703, 173.678934)"><g><path d="M 33.347656 2.042969 C 50.851562 2.042969 62.347656 -7.15625 62.347656 -21.207031 C 62.347656 -38.074219 47.910156 -40.375 36.667969 -42.417969 C 29.511719 -43.695312 23.636719 -44.84375 23.636719 -49.445312 C 23.636719 -53.40625 27.085938 -55.960938 32.835938 -55.960938 C 39.351562 -55.960938 43.183594 -53.277344 43.3125 -47.785156 L 61.070312 -47.785156 C 60.945312 -61.582031 49.957031 -70.910156 33.347656 -70.910156 C 16.738281 -70.910156 5.621094 -61.839844 5.621094 -48.804688 C 5.621094 -32.578125 19.675781 -29.640625 30.664062 -27.726562 C 37.945312 -26.574219 43.949219 -25.167969 43.949219 -20.441406 C 43.949219 -15.84375 39.222656 -13.414062 34.113281 -13.414062 C 27.46875 -13.414062 22.742188 -16.480469 22.613281 -22.613281 L 4.472656 -22.613281 C 4.472656 -7.921875 16.097656 2.042969 33.347656 2.042969 Z M 33.347656 2.042969 "/></g></g></g><g fill="#dcffcd" fill-opacity="1"><g transform="translate(256.422055, 173.678934)"><g><path d="M 8.945312 -78.191406 L 27.46875 -78.191406 L 27.46875 -95.441406 L 8.945312 -95.441406 Z M 8.945312 0 L 27.597656 0 L 27.597656 -68.992188 L 8.945312 -68.992188 Z M 8.945312 0 "/></g></g></g><g fill="#dcffcd" fill-opacity="1"><g transform="translate(292.961974, 173.678934)"><g><path d="M 41.652344 2.042969 C 62.988281 2.042969 78.957031 -13.671875 78.957031 -34.496094 C 78.957031 -55.320312 62.988281 -70.910156 41.652344 -70.910156 C 20.316406 -70.910156 4.34375 -55.320312 4.34375 -34.496094 C 4.34375 -13.671875 20.316406 2.042969 41.652344 2.042969 Z M 41.652344 -15.585938 C 30.917969 -15.585938 23.253906 -23.253906 23.253906 -34.496094 C 23.253906 -45.613281 30.917969 -53.40625 41.652344 -53.40625 C 52.382812 -53.40625 60.050781 -45.613281 60.050781 -34.496094 C 60.050781 -23.253906 52.382812 -15.585938 41.652344 -15.585938 Z M 41.652344 -15.585938 "/></g></g></g><g fill="#dcffcd" fill-opacity="1"><g transform="translate(376.390528, 173.678934)"><g><path d="M 48.167969 -70.527344 C 38.839844 -70.527344 30.535156 -66.566406 25.296875 -60.433594 L 21.71875 -68.992188 L 8.945312 -68.992188 L 8.945312 0 L 27.597656 0 L 27.597656 -36.15625 C 27.597656 -47.273438 33.472656 -54.171875 43.058594 -54.171875 C 51.105469 -54.171875 55.066406 -49.1875 55.066406 -38.710938 L 55.066406 0 L 73.71875 0 L 73.71875 -41.777344 C 73.71875 -59.28125 63.882812 -70.527344 48.167969 -70.527344 Z M 48.167969 -70.527344 "/></g></g></g><g fill="#dcffcd" fill-opacity="1"><g transform="translate(458.285934, 173.678934)"><g/></g></g><g fill="#dcffcd" fill-opacity="1"><g transform="translate(488.821017, 173.678934)"><g><path d="M 82.28125 0 C 77.296875 -5.621094 72.570312 -10.859375 68.226562 -15.84375 C 73.210938 -22.996094 76.148438 -31.941406 76.53125 -42.289062 L 60.816406 -42.289062 C 60.433594 -37.179688 59.15625 -32.578125 57.238281 -28.621094 C 51.871094 -34.878906 47.144531 -40.5 43.3125 -45.355469 C 53.148438 -51.105469 62.734375 -57.621094 62.734375 -69.632812 C 62.734375 -82.28125 52.640625 -90.839844 37.691406 -90.839844 C 22.613281 -90.839844 12.394531 -82.410156 12.394531 -69.503906 C 12.394531 -64.394531 13.925781 -59.28125 20.824219 -49.445312 C 12.394531 -43.949219 4.984375 -36.539062 4.984375 -24.019531 C 4.984375 -8.558594 16.355469 1.53125 33.089844 1.53125 C 42.417969 1.53125 50.59375 -0.894531 57.367188 -5.238281 C 58.898438 -3.578125 60.558594 -1.789062 62.09375 0 Z M 37.691406 -77.171875 C 42.929688 -77.171875 46.25 -74.105469 46.25 -69.503906 C 46.25 -64.394531 41.140625 -60.816406 34.496094 -57.238281 C 30.917969 -62.476562 29.128906 -66.566406 29.128906 -69.375 C 29.128906 -74.105469 32.453125 -77.171875 37.691406 -77.171875 Z M 34.878906 -14.4375 C 27.46875 -14.4375 22.488281 -18.527344 22.488281 -24.660156 C 22.488281 -29.898438 25.554688 -33.730469 30.023438 -37.179688 C 34.496094 -31.6875 39.992188 -25.296875 46.761719 -17.503906 C 43.183594 -15.460938 39.222656 -14.4375 34.878906 -14.4375 Z M 34.878906 -14.4375 "/></g></g></g><g fill="#dcffcd" fill-opacity="1"><g transform="translate(571.355224, 173.678934)"><g/></g></g><g fill="#dcffcd" fill-opacity="1"><g transform="translate(601.890353, 173.678934)"><g><path d="M 119.714844 0 L 105.917969 -89.433594 L 86.496094 -89.433594 L 62.222656 -34.496094 L 37.945312 -89.433594 L 18.652344 -89.433594 L 4.597656 0 L 24.273438 0 L 33.089844 -58.261719 L 59.792969 -0.128906 L 64.519531 -0.128906 L 91.222656 -58.261719 L 100.039062 0 Z M 119.714844 0 "/></g></g></g><g fill="#dcffcd" fill-opacity="1"><g transform="translate(726.458228, 173.678934)"><g><path d="M 8.945312 -78.191406 L 27.46875 -78.191406 L 27.46875 -95.441406 L 8.945312 -95.441406 Z M 8.945312 0 L 27.597656 0 L 27.597656 -68.992188 L 8.945312 -68.992188 Z M 8.945312 0 "/></g></g></g><g fill="#dcffcd" fill-opacity="1"><g transform="translate(762.998147, 173.678934)"><g><path d="M 33.347656 2.042969 C 50.851562 2.042969 62.347656 -7.15625 62.347656 -21.207031 C 62.347656 -38.074219 47.910156 -40.375 36.667969 -42.417969 C 29.511719 -43.695312 23.636719 -44.84375 23.636719 -49.445312 C 23.636719 -53.40625 27.085938 -55.960938 32.835938 -55.960938 C 39.351562 -55.960938 43.183594 -53.277344 43.3125 -47.785156 L 61.070312 -47.785156 C 60.945312 -61.582031 49.957031 -70.910156 33.347656 -70.910156 C 16.738281 -70.910156 5.621094 -61.839844 5.621094 -48.804688 C 5.621094 -32.578125 19.675781 -29.640625 30.664062 -27.726562 C 37.945312 -26.574219 43.949219 -25.167969 43.949219 -20.441406 C 43.949219 -15.84375 39.222656 -13.414062 34.113281 -13.414062 C 27.46875 -13.414062 22.742188 -16.480469 22.613281 -22.613281 L 4.472656 -22.613281 C 4.472656 -7.921875 16.097656 2.042969 33.347656 2.042969 Z M 33.347656 2.042969 "/></g></g></g><g fill="#dcffcd" fill-opacity="1"><g transform="translate(830.073195, 173.678934)"><g><path d="M 33.347656 2.042969 C 50.851562 2.042969 62.347656 -7.15625 62.347656 -21.207031 C 62.347656 -38.074219 47.910156 -40.375 36.667969 -42.417969 C 29.511719 -43.695312 23.636719 -44.84375 23.636719 -49.445312 C 23.636719 -53.40625 27.085938 -55.960938 32.835938 -55.960938 C 39.351562 -55.960938 43.183594 -53.277344 43.3125 -47.785156 L 61.070312 -47.785156 C 60.945312 -61.582031 49.957031 -70.910156 33.347656 -70.910156 C 16.738281 -70.910156 5.621094 -61.839844 5.621094 -48.804688 C 5.621094 -32.578125 19.675781 -29.640625 30.664062 -27.726562 C 37.945312 -26.574219 43.949219 -25.167969 43.949219 -20.441406 C 43.949219 -15.84375 39.222656 -13.414062 34.113281 -13.414062 C 27.46875 -13.414062 22.742188 -16.480469 22.613281 -22.613281 L 4.472656 -22.613281 C 4.472656 -7.921875 16.097656 2.042969 33.347656 2.042969 Z M 33.347656 2.042969 "/></g></g></g><g fill="#dcffcd" fill-opacity="1"><g transform="translate(897.148197, 173.678934)"><g><path d="M 8.945312 -78.191406 L 27.46875 -78.191406 L 27.46875 -95.441406 L 8.945312 -95.441406 Z M 8.945312 0 L 27.597656 0 L 27.597656 -68.992188 L 8.945312 -68.992188 Z M 8.945312 0 "/></g></g></g><g fill="#dcffcd" fill-opacity="1"><g transform="translate(933.68807, 173.678934)"><g><path d="M 41.652344 2.042969 C 62.988281 2.042969 78.957031 -13.671875 78.957031 -34.496094 C 78.957031 -55.320312 62.988281 -70.910156 41.652344 -70.910156 C 20.316406 -70.910156 4.34375 -55.320312 4.34375 -34.496094 C 4.34375 -13.671875 20.316406 2.042969 41.652344 2.042969 Z M 41.652344 -15.585938 C 30.917969 -15.585938 23.253906 -23.253906 23.253906 -34.496094 C 23.253906 -45.613281 30.917969 -53.40625 41.652344 -53.40625 C 52.382812 -53.40625 60.050781 -45.613281 60.050781 -34.496094 C 60.050781 -23.253906 52.382812 -15.585938 41.652344 -15.585938 Z M 41.652344 -15.585938 "/></g></g></g><g fill="#dcffcd" fill-opacity="1"><g transform="translate(1017.116602, 173.678934)"><g><path d="M 48.167969 -70.527344 C 38.839844 -70.527344 30.535156 -66.566406 25.296875 -60.433594 L 21.71875 -68.992188 L 8.945312 -68.992188 L 8.945312 0 L 27.597656 0 L 27.597656 -36.15625 C 27.597656 -47.273438 33.472656 -54.171875 43.058594 -54.171875 C 51.105469 -54.171875 55.066406 -49.1875 55.066406 -38.710938 L 55.066406 0 L 73.71875 0 L 73.71875 -41.777344 C 73.71875 -59.28125 63.882812 -70.527344 48.167969 -70.527344 Z M 48.167969 -70.527344 "/></g></g></g></svg>